<svg xmlns="http://www.w3.org/2000/svg" viewBox="0 0 1200 630" role="img" aria-label="Agent Fund social preview">
  <defs>
    <linearGradient id="bg" x1="0" y1="0" x2="1" y2="1">
      <stop offset="0%" stop-color="#02110c" />
      <stop offset="100%" stop-color="#041f15" />
    </linearGradient>
    <radialGradient id="pulse" cx="25%" cy="50%" r="60%">
      <stop offset="0%" stop-color="#33ff9f" stop-opacity="0.2" />
      <stop offset="100%" stop-color="#33ff9f" stop-opacity="0" />
    </radialGradient>
    <linearGradient id="ink" x1="0" y1="0" x2="1" y2="1">
      <stop offset="0%" stop-color="#d1ffe9" />
      <stop offset="100%" stop-color="#24ff98" />
    </linearGradient>
  </defs>

  <rect width="1200" height="630" fill="url(#bg)" />
  <rect width="1200" height="630" fill="url(#pulse)" />

  <g opacity="0.14" stroke="#5affb3">
    <path d="M0 90h1200M0 180h1200M0 270h1200M0 360h1200M0 450h1200M0 540h1200" />
    <path d="M120 0v630M240 0v630M360 0v630M480 0v630M600 0v630M720 0v630M840 0v630M960 0v630M1080 0v630" />
  </g>

  <g transform="translate(88,138)">
    <rect width="210" height="210" rx="42" fill="#041a12" stroke="#31ff9d" stroke-opacity="0.55" />
    <circle cx="105" cy="105" r="69" fill="none" stroke="#31ff9d" stroke-width="6" />
    <circle cx="105" cy="105" r="40" fill="#0a3324" stroke="#57ffac" stroke-width="4" />
    <circle cx="105" cy="33" r="6" fill="#9effd2" />
    <circle cx="43" cy="140" r="6" fill="#9effd2" />
    <circle cx="167" cy="140" r="6" fill="#9effd2" />
    <path d="M105 39v19M50 137l15-9M160 137l-15-9" stroke="#7effc4" stroke-width="3" stroke-linecap="round" />
    <path d="M86 112h37" stroke="#baffdf" stroke-width="7" stroke-linecap="round" />
    <path d="M111 97l14 15-14 15" fill="none" stroke="#baffdf" stroke-width="7" stroke-linecap="round" stroke-linejoin="round" />
  </g>

  <g fill="url(#ink)" font-family="'JetBrains Mono', 'Share Tech Mono', monospace">
    <text x="352" y="232" font-size="88" font-weight="700" letter-spacing="3">AGENT FUND</text>
    <text x="352" y="298" font-size="33" opacity="0.95">THE DECENTRALIZED TERMINAL FOR FUNDING AUTONOMOUS AI AGENTS ON CELO</text>
    <text x="352" y="347" font-size="29" opacity="0.82">HUMANS AND MACHINES WELCOME</text>
  </g>
</svg>
